<svg width="24" height="24" viewBox="0 0 24 24" fill="none" xmlns="http://www.w3.org/2000/svg">
  <path d="M12 2C11.4477 2 11 2.44772 11 3V10C11 10.5523 11.4477 11 12 11C12.5523 11 13 10.5523 13 10V3C13 2.44772 12.5523 2 12 2Z" stroke="currentColor" stroke-width="1.5" stroke-linecap="round"/>
  <path d="M12 11C10.3431 11 9 12.3431 9 14V20C9 21.1046 9.89543 22 11 22H13C14.1046 22 15 21.1046 15 20V14C15 12.3431 13.6569 11 12 11Z" stroke="currentColor" stroke-width="1.5" stroke-linecap="round" stroke-linejoin="round"/>
  <ellipse cx="12" cy="7" rx="2" ry="3" stroke="currentColor" stroke-width="1.5"/>
</svg>
