<svg width="24" height="24" viewBox="0 0 24 24" fill="none" xmlns="http://www.w3.org/2000/svg">
  <path d="M12 2C12 2 8 5 8 9C8 11.2091 9.79086 13 12 13C14.2091 13 16 11.2091 16 9C16 5 12 2 12 2Z" stroke="currentColor" stroke-width="1.5" stroke-linecap="round" stroke-linejoin="round"/>
  <path d="M5 14C5 14 3 16 3 18C3 19.1046 3.89543 20 5 20C6.10457 20 7 19.1046 7 18C7 16 5 14 5 14Z" stroke="currentColor" stroke-width="1.5" stroke-linecap="round" stroke-linejoin="round"/>
  <path d="M19 14C19 14 17 16 17 18C17 19.1046 17.8954 20 19 20C20.1046 20 21 19.1046 21 18C21 16 19 14 19 14Z" stroke="currentColor" stroke-width="1.5" stroke-linecap="round" stroke-linejoin="round"/>
  <path d="M12 14C12 14 10 16 10 18C10 19.1046 10.8954 20 12 20C13.1046 20 14 19.1046 14 18C14 16 12 14 12 14Z" stroke="currentColor" stroke-width="1.5" stroke-linecap="round" stroke-linejoin="round"/>
</svg>
