<svg width="20" height="20" viewBox="0 0 20 20" fill="none" xmlns="http://www.w3.org/2000/svg">
  <path d="M10 1.66667C10 1.66667 6.66667 4.16667 6.66667 7.5C6.66667 9.34095 8.15905 10.8333 10 10.8333C11.841 10.8333 13.3333 9.34095 13.3333 7.5C13.3333 4.16667 10 1.66667 10 1.66667Z" stroke="currentColor" stroke-width="1.25" stroke-linecap="round" stroke-linejoin="round"/>
  <path d="M4.16667 11.6667C4.16667 11.6667 2.5 13.3333 2.5 15C2.5 15.9205 3.24619 16.6667 4.16667 16.6667C5.08714 16.6667 5.83333 15.9205 5.83333 15C5.83333 13.3333 4.16667 11.6667 4.16667 11.6667Z" stroke="currentColor" stroke-width="1.25" stroke-linecap="round" stroke-linejoin="round"/>
  <path d="M15.8333 11.6667C15.8333 11.6667 14.1667 13.3333 14.1667 15C14.1667 15.9205 14.9129 16.6667 15.8333 16.6667C16.7538 16.6667 17.5 15.9205 17.5 15C17.5 13.3333 15.8333 11.6667 15.8333 11.6667Z" stroke="currentColor" stroke-width="1.25" stroke-linecap="round" stroke-linejoin="round"/>
  <path d="M10 11.6667C10 11.6667 8.33333 13.3333 8.33333 15C8.33333 15.9205 9.07953 16.6667 10 16.6667C10.9205 16.6667 11.6667 15.9205 11.6667 15C11.6667 13.3333 10 11.6667 10 11.6667Z" stroke="currentColor" stroke-width="1.25" stroke-linecap="round" stroke-linejoin="round"/>
</svg>
